<svg xmlns="http://www.w3.org/2000/svg" viewBox="0 0 64 60" fill="none">
  <g fill="currentColor">
    <path d="M48.48 3.1a1.55 1.55 0 0 1 .79 2.04L36.91 33.42l-2.84-1.24L46.44 3.9a1.55 1.55 0 0 1 2.04-.8Z"/>
    <path d="m27.72 29.16 15.7 6.86a1.55 1.55 0 0 1 .8 2.04l-2.45 5.6-18.54-8.1 2.45-5.6a1.55 1.55 0 0 1 2.04-.8Z"/>
    <path d="M22.33 36.8c-3.45 4.02-8.7 6.08-14.01 5.47 3.83 4.02 8.31 6.16 13.43 6.43-1.34 1.62-3.04 3.08-5.08 4.39 8.93.67 16.68-2.36 23.25-9.08L22.33 36.8Z"/>
    <path d="M20.26 19.18c.59 2.7 2.17 4.27 4.76 4.74-2.59.47-4.17 2.04-4.76 4.74-.59-2.7-2.17-4.27-4.76-4.74 2.59-.47 4.17-2.04 4.76-4.74Z"/>
    <path d="M33.61 13.08c.35 1.61 1.29 2.55 2.84 2.83-1.55.28-2.49 1.22-2.84 2.83-.35-1.61-1.29-2.55-2.84-2.83 1.55-.28 2.49-1.22 2.84-2.83Z"/>
  </g>
</svg>
